<svg width="1795" height="414" viewBox="0 0 1795 414" fill="none" xmlns="http://www.w3.org/2000/svg">
<path d="M146.318 295.594L149.391 254.799L155.107 114.224L155.821 84.0354C155.945 79.2359 156.007 74.5027 156.007 69.8358V50.2405C171.078 50.4771 183.32 50.5955 192.732 50.5955C198.448 50.5955 207.132 50.4771 218.783 50.2405C230.434 50.0038 239.175 49.8855 245.005 49.8855C260.324 49.8855 271.661 50.993 279.015 53.2081C286.305 55.3862 292.994 59.2 298.564 64.3548C304.368 69.7669 308.93 76.3584 311.94 83.6804C315.269 91.7112 316.931 100.327 316.827 109.012C317.028 123.411 313.006 137.557 305.252 149.722C297.68 161.649 286.685 171.046 273.685 176.702C259.63 182.787 244.43 185.822 229.1 185.605C219.389 185.516 209.705 184.566 200.163 182.765C198.536 175.168 196.48 167.668 194.004 160.301C203.063 162.06 212.268 162.964 221.498 162.999C229.875 163.017 238.221 162.005 246.348 159.989C253.791 158.221 260.743 154.825 266.697 150.049C272.405 145.372 276.928 139.429 279.901 132.697C283.036 125.745 284.638 118.207 284.603 110.589C284.666 104.733 283.498 98.9296 281.173 93.5491C279.135 88.6717 275.861 84.4012 271.67 81.1528C267.616 78.0837 262.917 75.9627 257.923 74.9476C250.549 73.6891 243.068 73.1471 235.588 73.3289H220.441L201.435 73.6839L187.331 73.5135C185.892 99.7542 184.873 123.6 184.273 145.051L181.743 218.888C180.895 246.937 180.476 265.69 180.486 275.147V295.452L163.652 295.097C161.623 295.192 155.845 295.358 146.318 295.594Z" fill="white"/>
<path d="M352.226 142.469C353.313 137.186 354.46 129.395 355.67 119.096C368.075 115.797 380.668 113.246 393.382 111.457C403.725 110.104 414.145 109.416 424.577 109.398C434.812 109.334 445.027 110.324 455.057 112.351C463.508 113.917 471.544 117.194 478.665 121.979C484.933 126.409 489.096 131.502 491.154 137.257C493.229 143.192 494.268 149.435 494.226 155.717C494.226 164 493.598 177.873 492.34 197.336C491.083 216.798 490.13 234.784 489.482 251.294C488.825 267.832 488.496 282.571 488.496 295.511C481.98 295.275 476.669 295.156 472.563 295.156C468.704 295.156 463.203 295.27 456.086 295.511L459.93 246.452L462.674 188.39C458.387 191.627 455.286 193.899 453.171 195.22C450.887 196.629 448.499 197.863 446.026 198.912C443.368 200.048 440.439 201.122 437.238 202.135C434.037 203.148 427.844 204.918 418.661 207.446C409.429 209.954 402.88 211.847 399.012 213.125C392.186 215.196 385.569 217.896 379.249 221.191C374.85 223.529 370.777 226.427 367.131 229.81C364.227 232.438 361.884 235.621 360.243 239.167C358.677 242.99 357.881 247.081 357.9 251.209C357.785 257.34 359.832 263.317 363.687 268.106C367.427 272.796 372.501 276.259 378.249 278.046C385.082 280.06 392.186 281.018 399.312 280.886C404.636 280.874 409.953 280.523 415.231 279.835C422.789 278.662 430.232 276.852 437.481 274.425C435.161 281.437 433.253 288.578 431.765 295.809C424.612 297.26 417.385 298.317 410.115 298.976C404.571 299.402 399.312 299.615 394.396 299.615C377.868 299.615 364.964 297.722 355.685 293.935C346.937 290.544 339.599 284.314 334.864 276.257C330.306 268.504 327.932 259.676 327.991 250.697C327.938 245.62 328.765 240.572 330.434 235.774C332.002 231.338 334.227 227.16 337.036 223.378C340.406 219.098 344.398 215.341 348.883 212.231C353.877 208.574 359.269 205.487 364.959 203.03C370.561 200.644 377.105 198.277 384.593 195.93C392.081 193.582 404.114 190.439 420.69 186.501C425.272 185.505 429.798 184.273 434.251 182.809C437.995 181.56 441.31 180.324 444.254 179.132C446.952 178.032 449.502 176.601 451.842 174.872C454.099 173.181 456.109 171.189 457.815 168.951C459.519 166.812 460.865 164.415 461.802 161.851C463.133 158.073 463.415 154.009 462.618 150.086C461.821 146.163 459.974 142.526 457.272 139.558C453.197 135.237 447.952 132.18 442.168 130.754C434.984 128.963 427.595 128.118 420.19 128.241C412.103 128.257 404.029 128.889 396.04 130.129C388.832 131.157 381.7 132.656 374.69 134.616C368.641 136.367 361.153 138.985 352.226 142.469Z" fill="white"/>
<path d="M669.25 268.271C669.007 270.188 668.364 273.752 667.35 278.963C666.335 284.175 665.449 289.301 664.721 294.342C656.362 296.3 647.877 297.681 639.327 298.474C631.182 299.184 624.037 299.543 617.892 299.553C605.667 299.665 593.497 297.907 581.81 294.342C570.735 290.924 560.668 284.868 552.486 276.701C544.305 268.534 538.256 258.504 534.867 247.483C530.994 235.431 529.065 222.846 529.151 210.195C529.062 193.037 532.253 176.018 538.554 160.042C544.295 144.909 554.633 131.927 568.134 122.896C581.643 113.903 600.034 109.412 623.308 109.421C640.245 109.394 657.105 111.692 673.409 116.251C674.123 126.437 674.785 134.824 675.395 141.413C666.212 138.403 656.848 135.97 647.358 134.128C640.757 132.926 634.063 132.295 627.352 132.24C617.546 132.074 607.822 134.037 598.858 137.99C590.558 141.76 583.229 147.353 577.423 154.348C571.361 161.702 567.004 170.293 564.662 179.51C562.065 189.177 560.744 199.139 560.732 209.144C560.732 222.672 562.842 234.533 567.063 244.728C571.357 254.996 579.224 263.387 589.226 268.371C600.193 274.038 612.406 276.907 624.766 276.72C637.531 276.72 652.36 273.904 669.25 268.271Z" fill="white"/>
<path d="M706.791 295.596L709.849 246.892L713.65 153.601L715.622 75.418C715.756 64.0584 715.818 55.6712 715.808 50.2565L732.642 50.441C735.9 50.441 741.139 50.3795 748.361 50.2565C746.789 69.5489 744.883 107.026 742.645 162.688C740.406 218.351 739.115 262.653 738.772 295.596C731.284 295.359 726.044 295.241 723.053 295.241C719.69 295.241 714.269 295.359 706.791 295.596ZM744.045 193.899L780.956 154.765C793.855 141.124 806.04 127.36 817.51 113.473C825.827 113.586 831.853 113.643 835.587 113.643C840.284 113.643 846.733 113.586 854.936 113.473L776.684 194.084C791.288 213.016 819.539 246.835 861.438 295.539C853.978 295.303 847.962 295.184 843.389 295.184C838.817 295.184 832.624 295.303 824.812 295.539L798.204 260.466C795.68 257.229 790.068 250.389 781.371 239.948L753.305 205.954L744.045 193.899Z" fill="white"/>
<path d="M885.09 295.593C887.148 271.151 888.577 251.319 889.377 236.097C890.177 220.875 891.273 191.61 892.664 148.301C894.054 104.983 894.75 77.9329 894.75 67.1508L894.578 50.2534C910.84 50.49 923.373 50.6084 932.175 50.6084C939.292 50.6084 948.847 50.49 960.841 50.2534C972.835 50.0167 982.024 49.8984 988.407 49.8984C1001.67 49.8984 1011.77 50.5562 1018.7 51.872C1025.18 53.0308 1031.44 55.1513 1037.28 58.1624C1042.51 60.891 1047.17 64.5821 1051.01 69.0393C1055.01 73.8607 1058.07 79.3722 1060.06 85.2978C1062.41 92.1863 1063.57 99.4221 1063.49 106.697C1063.5 112.671 1062.74 118.622 1061.23 124.403C1058.24 135.537 1052.05 145.561 1043.41 153.243C1039.83 156.474 1035.88 159.281 1031.65 161.606C1026.85 164.045 1021.9 166.174 1016.83 167.982C1021.83 169.184 1026.75 170.687 1031.56 172.483C1035.43 174.016 1039.13 175.943 1042.59 178.234C1046.41 180.74 1049.87 183.728 1052.91 187.123C1056.02 190.536 1058.63 194.359 1060.69 198.482C1062.78 202.797 1064.33 207.351 1065.3 212.043C1066.4 217.244 1066.95 222.546 1066.93 227.861C1066.96 235.305 1065.8 242.705 1063.49 249.785C1059.18 263.195 1050.2 274.639 1038.16 282.061C1032.68 285.515 1026.78 288.29 1020.62 290.325C1013.16 292.491 1005.5 293.848 997.752 294.372C988.292 295.205 975.66 295.621 959.855 295.621L913.67 295.423L885.09 295.593ZM919.8 272.874H966.757C979.999 272.874 989.817 272.154 996.209 270.715C1002.84 269.18 1009.18 266.601 1014.99 263.076C1021.32 259.206 1026.35 253.538 1029.42 246.803C1032.89 239.598 1034.68 231.705 1034.65 223.715C1034.74 217.47 1033.48 211.28 1030.93 205.568C1028.44 200.137 1024.73 195.34 1020.1 191.539C1015.21 187.52 1009.51 184.582 1003.38 182.92C996.99 181.121 987.649 180.222 975.36 180.222H922.958L919.8 272.874ZM924.087 157.673H956.811C971.511 157.673 981.514 157.341 986.82 156.679C992.751 155.858 998.552 154.288 1004.08 152.007C1010 149.777 1015.27 146.117 1019.42 141.358C1023.35 136.826 1026.36 131.58 1028.28 125.908C1030.14 120.495 1031.1 114.817 1031.13 109.096C1031.2 103.641 1030.13 98.2307 1027.99 93.207C1026 88.6547 1022.92 84.6499 1019.03 81.5349C1014.92 78.2274 1010.14 75.8353 1005.01 74.5203C999.658 73.0909 991.489 72.3714 980.504 72.362H927.202L924.087 157.673Z" fill="white"/>
<path d="M1192.35 109.396C1204.61 109.335 1216.81 111.15 1228.51 114.778C1239.6 118.146 1249.78 123.972 1258.27 131.817C1266.91 139.989 1273.45 150.096 1277.36 161.296C1281.73 173.338 1283.93 186.052 1283.86 198.853C1283.92 212.808 1281.56 226.669 1276.9 239.833C1272.72 252.116 1266.07 263.429 1257.37 273.089C1248.97 282.222 1238.41 289.124 1226.64 293.167C1214.11 297.496 1200.93 299.657 1187.66 299.557C1175.25 299.657 1162.91 297.738 1151.12 293.877C1139.93 290.2 1129.74 284.027 1121.33 275.829C1112.8 267.402 1106.3 257.17 1102.32 245.897C1097.96 234.004 1095.75 221.437 1095.8 208.779C1095.8 189.259 1099.79 171.676 1107.75 156.028C1115.26 140.839 1127.59 128.525 1142.83 120.983C1158.18 113.28 1175.15 109.309 1192.35 109.396ZM1191.52 132.215C1179.59 132.117 1167.88 135.291 1157.65 141.388C1147.36 147.494 1139.74 156.69 1134.79 168.978C1129.76 181.775 1127.25 195.411 1127.38 209.148C1127.21 220.846 1129.29 232.468 1133.53 243.383C1137.57 253.438 1144.64 262.008 1153.76 267.92C1163.16 274.149 1174.47 277.263 1187.72 277.263C1196.5 277.319 1205.22 275.764 1213.44 272.677C1221.68 269.5 1228.95 264.273 1234.57 257.498C1240.86 249.902 1245.42 241.041 1247.94 231.527C1250.84 221.018 1252.28 210.163 1252.22 199.265C1252.31 189.219 1250.86 179.218 1247.94 169.602C1245.68 161.586 1241.42 154.269 1235.55 148.336C1229.68 142.403 1222.38 138.048 1214.35 135.68C1206.95 133.401 1199.25 132.233 1191.5 132.215H1191.52Z" fill="white"/>
<path d="M1407.53 109.396C1419.79 109.335 1431.99 111.15 1443.7 114.778C1454.78 118.146 1464.96 123.972 1473.45 131.818C1482.09 139.989 1488.63 150.096 1492.54 161.296C1496.91 173.337 1499.12 186.051 1499.05 198.853C1499.11 212.809 1496.75 226.67 1492.08 239.833C1487.9 252.119 1481.26 263.432 1472.55 273.089C1464.14 282.214 1453.57 289.102 1441.79 293.124C1429.27 297.452 1416.09 299.613 1402.83 299.514C1390.42 299.616 1378.07 297.698 1366.29 293.834C1355.11 290.175 1344.93 284.026 1336.52 275.858C1327.97 267.438 1321.45 257.205 1317.44 245.925C1313.08 234.032 1310.88 221.465 1310.93 208.807C1310.93 189.288 1314.91 171.704 1322.87 156.056C1330.38 140.867 1342.71 128.553 1357.96 121.012C1373.32 113.29 1390.31 109.309 1407.53 109.396ZM1406.7 132.215C1394.77 132.117 1383.06 135.291 1372.83 141.388C1362.54 147.494 1354.92 156.69 1349.97 168.978C1344.93 181.772 1342.41 195.409 1342.55 209.148C1342.37 220.846 1344.46 232.468 1348.7 243.383C1352.73 253.439 1359.8 262.008 1368.93 267.92C1378.32 274.149 1389.64 277.263 1402.88 277.263C1411.67 277.319 1420.39 275.764 1428.6 272.677C1436.84 269.5 1444.12 264.273 1449.74 257.498C1456.03 249.902 1460.59 241.041 1463.1 231.527C1466.01 221.018 1467.45 210.163 1467.39 199.265C1467.48 189.219 1466.03 179.218 1463.1 169.602C1460.86 161.593 1456.6 154.28 1450.74 148.347C1444.88 142.415 1437.6 138.057 1429.58 135.68C1422.17 133.397 1414.47 132.229 1406.71 132.215H1406.7Z" fill="white"/>
<path d="M1531.88 295.596L1534.95 246.892L1538.73 153.601L1540.72 75.418C1540.83 64.0584 1540.9 55.6712 1540.91 50.2565L1557.74 50.441C1561 50.441 1566.24 50.3795 1573.46 50.2565C1571.89 69.5489 1569.98 107.026 1567.74 162.688C1565.5 218.351 1564.21 262.653 1563.86 295.596C1556.38 295.359 1551.14 295.241 1548.14 295.241C1544.78 295.241 1539.36 295.359 1531.88 295.596ZM1569.14 193.899L1606.05 154.765C1618.95 141.124 1631.13 127.36 1642.59 113.473C1650.91 113.586 1656.94 113.643 1660.69 113.643C1665.37 113.643 1671.83 113.643 1680.02 113.473L1601.78 194.084C1616.39 213.016 1644.64 246.835 1686.54 295.539C1679.08 295.303 1673.06 295.184 1668.47 295.184C1663.89 295.184 1657.7 295.303 1649.9 295.539L1623.29 260.466C1620.74 257.229 1615.13 250.389 1606.45 239.948L1578.39 205.954L1569.14 193.899Z" fill="white"/>
<path d="M142.928 244.863C143.376 245.107 143.766 245.443 144.074 245.848C144.382 246.254 144.6 246.719 144.713 247.215C144.826 247.71 144.833 248.223 144.732 248.721C144.631 249.219 144.425 249.69 144.128 250.102C143.5 251.214 142.643 252.182 141.613 252.942C136.011 257.619 130.433 261.841 124.879 265.608C119.325 269.376 114.286 272.689 109.76 275.548C104.473 278.7 99.4193 281.621 94.5988 284.309C88.9057 287.212 83.0074 289.698 76.9506 291.75C71.0244 293.766 64.8967 295.142 58.6737 295.853C52.6061 296.548 46.4692 296.366 40.4539 295.314C34.3313 294.223 28.4554 292.049 23.1059 288.896C18.576 286.168 14.4536 282.822 10.8593 278.956C6.68167 274.471 3.60526 269.086 1.87091 263.223C-0.117074 256.169 -0.526781 248.768 0.670557 241.54C1.81376 233.323 5.4577 224.004 11.6024 213.581C14.5043 208.699 17.8528 204.093 21.6054 199.822C25.3374 195.53 29.4087 191.541 33.7805 187.894C37.8966 184.466 42.2359 181.312 46.7701 178.452C50.7276 175.933 54.8581 173.694 59.131 171.749C65.6518 168.853 72.3365 166.335 79.1513 164.209C85.4642 162.258 91.9184 160.792 98.4571 159.822C104.002 158.975 109.628 158.775 115.219 159.225C119.659 159.529 123.98 160.788 127.88 162.917C130.536 164.458 132.842 166.53 134.652 169.001C136.462 171.471 137.738 174.288 138.398 177.273C140.027 183.71 138.598 190.725 134.111 198.317C129.765 205.394 123.875 211.411 116.877 215.924C109.012 221.203 100.635 225.684 91.8694 229.3C82.9526 233.032 73.7789 236.126 64.4183 238.558C56.3952 240.698 48.2557 242.381 40.0395 243.599C38.8582 251.409 39.3774 257.95 41.5971 263.223C43.3985 267.987 46.7345 272.026 51.0857 274.71C57.3162 278.39 64.6604 279.749 71.8062 278.544C79.5922 277.273 87.1501 274.882 94.2415 271.444C101.751 267.883 108.966 263.738 115.819 259.048C122.679 254.315 128.766 250.202 134.082 246.709C135.579 245.689 137.209 244.877 138.926 244.295C139.595 244.096 140.299 244.043 140.99 244.141C141.681 244.24 142.342 244.486 142.928 244.863ZM54.3296 206.865C49.9038 214.182 46.2043 221.91 43.2834 229.939C48.1258 228.665 52.896 227.134 57.5734 225.353C62.5203 223.491 67.3412 221.313 72.0063 218.835C76.4583 216.485 80.674 213.718 84.5958 210.571C88.17 207.768 91.2012 204.342 93.5413 200.461C96.8662 194.838 98.238 189.778 97.6569 185.282C97.071 180.78 95.5848 177.827 93.1698 176.421C91.7598 175.597 89.6497 175.55 86.8393 176.279C83.3791 177.311 80.1183 178.914 77.1936 181.022C73.0504 183.893 69.2529 187.228 65.8759 190.961C61.4594 195.835 57.5835 201.167 54.3153 206.865H54.3296Z" fill="white"/>
<path fill-rule="evenodd" clip-rule="evenodd" d="M1744.22 6.19383C1720 6.19383 1700.4 25.697 1700.4 49.714C1700.4 73.731 1720 93.2342 1744.22 93.2342C1768.44 93.2342 1788.04 73.731 1788.04 49.714C1788.04 25.697 1768.44 6.19383 1744.22 6.19383ZM1694.21 49.714C1694.21 22.2392 1716.62 0 1744.22 0C1771.82 0 1794.23 22.2392 1794.23 49.714C1794.23 77.1888 1771.82 99.428 1744.22 99.428C1716.62 99.428 1694.21 77.1888 1694.21 49.714Z" fill="white"/>
<path d="M1752.32 75.1054L1741.92 56.8731H1737.47V75.1054H1728.03V28.2469H1745.7C1748.92 28.1515 1752.11 28.803 1755.02 30.1496C1757.4 31.2767 1759.38 33.0745 1760.74 35.3182C1762.03 37.5223 1762.7 40.0358 1762.67 42.5884C1762.73 45.7237 1761.69 48.7821 1759.73 51.2421C1757.77 53.7021 1755.02 55.4112 1751.93 56.0779L1763.21 75.0485L1752.32 75.1054ZM1737.47 49.8301H1745.36C1747.44 49.9838 1749.49 49.3208 1751.08 47.9842C1751.73 47.3009 1752.23 46.4923 1752.56 45.6082C1752.88 44.7241 1753.02 43.7834 1752.96 42.844C1753.02 41.9281 1752.88 41.0107 1752.56 40.1518C1752.23 39.2929 1751.73 38.5119 1751.08 37.8599C1749.47 36.5543 1747.43 35.9134 1745.36 36.0708H1737.47V49.8301Z" fill="white"/>
<path d="M190.761 337.769V345.706H158.023V370.924H184.602V378.876H158.023V412.572H148.191V337.769H190.761Z" fill="white"/>
<path d="M201.581 367.133C203.882 362.739 207.377 359.074 211.67 356.555C216.005 354.045 220.943 352.75 225.96 352.806C230.68 352.689 235.344 353.837 239.464 356.129C243.037 358.092 246.002 360.989 248.038 364.507V353.772H258.041V412.572H248.038V401.624C245.962 405.186 242.962 408.129 239.349 410.144C235.254 412.465 230.602 413.638 225.888 413.537C220.853 413.608 215.899 412.264 211.598 409.661C207.319 407.04 203.856 403.289 201.595 398.827C199.079 393.91 197.818 388.453 197.923 382.937C197.798 377.449 199.055 372.016 201.581 367.133ZM245.323 371.478C243.651 368.33 241.127 365.708 238.035 363.91C234.955 362.201 231.487 361.304 227.96 361.304C224.433 361.304 220.965 362.201 217.886 363.91C214.797 365.665 212.278 368.262 210.626 371.393C208.758 374.968 207.829 378.953 207.926 382.98C207.824 387.062 208.752 391.104 210.626 394.737C212.267 397.904 214.773 400.547 217.857 402.362C220.895 404.11 224.35 405.017 227.86 404.989C231.402 405.018 234.889 404.111 237.963 402.362C241.067 400.554 243.593 397.911 245.251 394.737C247.116 391.141 248.044 387.138 247.952 383.094C248.077 379.059 247.172 375.058 245.323 371.464V371.478Z" fill="white"/>
<path d="M273.497 367.13C275.82 362.714 279.358 359.045 283.7 356.552C288.263 354 293.428 352.706 298.662 352.803C305.931 352.803 311.928 354.554 316.653 358.057C321.426 361.654 324.743 366.833 325.999 372.654H315.41C314.507 369.219 312.425 366.205 309.522 364.134C306.327 361.977 302.523 360.888 298.662 361.024C296.114 360.925 293.576 361.382 291.225 362.364C288.875 363.345 286.77 364.827 285.058 366.704C281.6 370.538 279.871 375.962 279.871 382.977C279.871 389.991 281.6 395.463 285.058 399.392C286.754 401.295 288.854 402.802 291.206 403.804C293.558 404.805 296.105 405.277 298.662 405.185C302.489 405.33 306.267 404.283 309.465 402.189C312.387 400.126 314.49 397.112 315.41 393.669H325.999C324.58 399.418 321.227 404.513 316.496 408.11C311.329 411.849 305.05 413.759 298.662 413.534C293.427 413.611 288.267 412.297 283.715 409.729C279.361 407.231 275.82 403.545 273.512 399.108C270.972 394.122 269.711 388.591 269.839 383.005C269.719 377.495 270.976 372.04 273.497 367.13Z" fill="white"/>
<path d="M338.331 342.269C337.396 341.337 336.761 340.15 336.504 338.859C336.247 337.569 336.381 336.231 336.889 335.016C337.396 333.801 338.255 332.762 339.356 332.031C340.457 331.3 341.751 330.91 343.075 330.909C343.933 330.894 344.785 331.058 345.575 331.391C346.365 331.723 347.076 332.217 347.662 332.84C348.883 334.113 349.564 335.804 349.564 337.562C349.564 339.32 348.883 341.01 347.662 342.283C347.076 342.906 346.365 343.4 345.575 343.732C344.785 344.065 343.933 344.229 343.075 344.214C342.192 344.232 341.315 344.068 340.499 343.733C339.682 343.399 338.944 342.9 338.331 342.269ZM347.834 353.756V412.571H338.002V353.756H347.834Z" fill="white"/>
<path d="M373.326 333.153V412.571H363.523V333.153H373.326Z" fill="white"/>
<path d="M389.249 342.269C388.314 341.336 387.678 340.148 387.421 338.856C387.165 337.564 387.3 336.225 387.81 335.009C388.319 333.794 389.18 332.755 390.283 332.025C391.386 331.295 392.682 330.907 394.007 330.909C394.865 330.894 395.717 331.058 396.507 331.391C397.297 331.723 398.009 332.217 398.595 332.84C399.815 334.113 400.496 335.804 400.496 337.562C400.496 339.32 399.815 341.01 398.595 342.283C398.009 342.906 397.297 343.4 396.507 343.732C395.717 344.065 394.865 344.229 394.007 344.214C393.123 344.23 392.244 344.066 391.425 343.731C390.607 343.397 389.866 342.899 389.249 342.269ZM398.766 353.756V412.571H388.935V353.756H398.766Z" fill="white"/>
<path d="M426.474 361.808V396.484C426.474 399.324 427.074 401.368 428.303 402.547C429.532 403.725 431.661 404.308 434.677 404.308H441.922V412.572H433.062C427.584 412.572 423.478 411.322 420.744 408.823C418 406.324 416.643 402.206 416.643 396.484V361.808H408.969V353.757H416.643V338.947H426.474V353.757H441.922V361.808H426.474Z" fill="white"/>
<path d="M452.71 367.133C455.011 362.739 458.506 359.074 462.798 356.555C467.134 354.045 472.072 352.75 477.088 352.806C481.808 352.689 486.473 353.837 490.593 356.129C494.166 358.092 497.131 360.989 499.167 364.507V353.772H509.17V412.572H499.167V401.624C497.091 405.186 494.091 408.129 490.478 410.144C486.383 412.465 481.731 413.638 477.017 413.537C471.981 413.608 467.028 412.264 462.727 409.661C458.448 407.04 454.985 403.289 452.724 398.827C450.208 393.91 448.947 388.453 449.051 382.937C448.927 377.449 450.184 372.016 452.71 367.133ZM496.409 371.464C494.737 368.315 492.213 365.694 489.121 363.896C486.041 362.187 482.573 361.29 479.046 361.29C475.519 361.29 472.051 362.187 468.972 363.896C465.89 365.663 463.381 368.269 461.741 371.407C459.873 374.982 458.944 378.968 459.04 382.994C458.938 387.076 459.867 391.118 461.741 394.752C463.381 397.919 465.887 400.562 468.972 402.377C472.01 404.125 475.464 405.032 478.975 405.004C482.517 405.032 486.004 404.126 489.078 402.377C492.182 400.568 494.708 397.925 496.366 394.752C498.23 391.155 499.159 387.152 499.067 383.108C499.185 379.066 498.271 375.06 496.409 371.464Z" fill="white"/>
<path d="M536.641 361.808V396.484C536.641 399.324 537.255 401.368 538.484 402.547C539.713 403.725 541.828 404.308 544.858 404.308H552.145V412.572H543.286C537.808 412.572 533.707 411.322 530.982 408.823C528.257 406.324 526.886 402.211 526.866 396.484V361.808H519.207V353.757H526.866V338.947H536.698V353.757H552.145V361.808H536.641Z" fill="white"/>
<path d="M616.597 386.812H569.311C569.673 392.606 571.674 397.131 575.313 400.387C578.929 403.643 583.667 405.392 588.545 405.272C592.31 405.408 596.024 404.381 599.177 402.333C601.981 400.412 604.087 397.643 605.179 394.438H615.768C614.262 399.974 610.906 404.836 606.251 408.225C601.106 411.902 594.878 413.775 588.545 413.55C583.26 413.621 578.049 412.303 573.441 409.731C569.014 407.232 565.399 403.527 563.023 399.052C560.417 394.108 559.114 388.588 559.236 383.007C559.135 377.496 560.396 372.045 562.909 367.132C565.231 362.681 568.819 359.007 573.226 356.567C577.912 354.032 583.182 352.755 588.517 352.861C593.72 352.763 598.859 354.021 603.421 356.511C607.648 358.844 611.118 362.327 613.424 366.55C615.814 370.988 617.024 375.958 616.94 380.991C616.924 382.936 616.809 384.879 616.597 386.812ZM604.278 369.262C602.667 366.622 600.326 364.498 597.534 363.142C594.586 361.727 591.347 361.013 588.074 361.054C583.39 360.952 578.846 362.645 575.384 365.783C571.758 369.212 569.612 373.905 569.397 378.875H606.765C606.857 375.503 605.996 372.172 604.278 369.262Z" fill="white"/>
<path d="M696.211 412.571L678.277 381.986H666.402V412.571H656.57V337.768H680.863C685.825 337.601 690.759 338.573 695.282 340.608C698.935 342.293 702 345.022 704.085 348.446C706.045 351.874 707.032 355.765 706.943 359.707C707.019 364.621 705.44 369.419 702.456 373.338C699.469 377.286 694.996 379.884 689.009 381.176L707.929 412.571H696.211ZM666.402 374.147H680.878C686.208 374.147 690.195 372.841 692.867 370.228C694.22 368.849 695.273 367.209 695.961 365.409C696.649 363.608 696.958 361.687 696.868 359.763C696.981 357.868 696.688 355.97 696.008 354.195C695.328 352.421 694.277 350.81 692.924 349.469C690.295 347.026 686.279 345.819 680.878 345.819H666.402V374.147Z" fill="white"/>
<path d="M774.833 386.812H727.519C727.881 392.606 729.881 397.131 733.52 400.387C737.137 403.643 741.875 405.392 746.753 405.272C750.517 405.408 754.232 404.381 757.385 402.332C760.189 400.412 762.294 397.643 763.387 394.437H773.975C772.471 399.97 769.12 404.831 764.473 408.225C759.321 411.899 753.09 413.771 746.753 413.55C741.477 413.616 736.277 412.298 731.677 409.73C727.25 407.232 723.635 403.527 721.26 399.052C718.653 394.108 717.35 388.587 717.473 383.007C717.371 377.496 718.632 372.045 721.145 367.132C723.475 362.686 727.061 359.014 731.463 356.567C736.149 354.034 741.419 352.756 746.753 352.861C751.957 352.761 757.096 354.019 761.657 356.51C765.884 358.844 769.354 362.326 771.66 366.55C774.05 370.987 775.26 375.958 775.176 380.99C775.16 382.936 775.046 384.879 774.833 386.812ZM762.529 369.262C760.912 366.621 758.566 364.497 755.77 363.142C752.827 361.727 749.593 361.013 746.324 361.054C741.636 360.95 737.086 362.643 733.62 365.783C729.994 369.212 727.848 373.905 727.633 378.875H765.073C765.141 375.498 764.26 372.169 762.529 369.262Z" fill="white"/>
<path d="M796.875 333.153V412.571H787.043V333.153H796.875Z" fill="white"/>
<path d="M823.268 409.73C818.786 407.251 815.115 403.545 812.693 399.052C810.055 394.117 808.731 388.594 808.849 383.007C808.748 377.464 810.108 371.991 812.793 367.132C815.288 362.649 819.015 358.966 823.539 356.511C828.243 354.075 833.468 352.804 838.772 352.804C844.076 352.804 849.302 354.075 854.005 356.511C858.518 358.955 862.244 362.617 864.752 367.075C867.46 371.972 868.821 377.492 868.696 383.078C868.818 388.69 867.421 394.231 864.651 399.123C862.051 403.605 858.246 407.278 853.662 409.73C848.957 412.261 843.679 413.556 838.329 413.493C833.066 413.556 827.875 412.26 823.268 409.73ZM848.275 402.432C851.439 400.721 854.046 398.15 855.792 395.02C857.793 391.336 858.779 387.191 858.65 383.007C858.763 378.819 857.778 374.675 855.792 370.98C854.1 367.882 851.551 365.329 848.447 363.625C845.405 362.039 842.021 361.21 838.587 361.21C835.152 361.21 831.768 362.039 828.726 363.625C825.671 365.328 823.187 367.886 821.581 370.98C819.681 374.701 818.752 378.836 818.881 383.007C818.747 387.205 819.66 391.371 821.539 395.133C823.128 398.239 825.616 400.801 828.684 402.489C831.662 404.104 835.007 404.935 838.401 404.902C841.843 404.927 845.237 404.097 848.275 402.489V402.432Z" fill="white"/>
<path d="M880.599 367.13C882.922 362.714 886.46 359.045 890.802 356.552C895.365 354 900.53 352.706 905.764 352.803C913.033 352.803 919.03 354.554 923.755 358.057C928.528 361.654 931.845 366.833 933.101 372.654H922.512C921.609 369.219 919.527 366.205 916.624 364.134C913.428 361.979 909.624 360.89 905.764 361.024C903.214 360.925 900.673 361.382 898.321 362.363C895.968 363.345 893.86 364.826 892.145 366.704C888.706 370.538 886.982 375.962 886.973 382.977C886.963 389.991 888.687 395.463 892.145 399.392C893.845 401.296 895.947 402.802 898.302 403.804C900.656 404.806 903.204 405.277 905.764 405.185C909.591 405.326 913.367 404.279 916.567 402.189C919.485 400.122 921.587 397.109 922.512 393.669H933.101C931.682 399.422 928.324 404.519 923.584 408.11C918.424 411.853 912.148 413.763 905.764 413.534C900.534 413.609 895.379 412.295 890.831 409.729C886.477 407.231 882.936 403.545 880.628 399.108C878.081 394.125 876.82 388.592 876.955 383.005C876.824 377.495 878.076 372.039 880.599 367.13Z" fill="white"/>
<path d="M945.121 367.133C947.431 362.741 950.93 359.077 955.224 356.555C959.559 354.045 964.497 352.75 969.514 352.806C974.234 352.689 978.898 353.837 983.018 356.129C986.591 358.092 989.556 360.989 991.592 364.507V353.772H1001.52V412.572H991.592V401.624C989.515 405.19 986.508 408.133 982.889 410.144C978.8 412.467 974.151 413.64 969.442 413.537C964.404 413.637 959.44 412.317 955.124 409.732C950.844 407.11 947.381 403.36 945.121 398.898C942.616 393.977 941.36 388.522 941.462 383.008C941.332 377.497 942.59 372.04 945.121 367.133ZM988.877 371.478C987.205 368.33 984.681 365.708 981.589 363.91C978.509 362.201 975.041 361.304 971.514 361.304C967.987 361.304 964.519 362.201 961.44 363.91C958.358 365.677 955.849 368.284 954.209 371.422C952.33 374.993 951.395 378.98 951.494 383.008C951.389 387.092 952.323 391.136 954.209 394.766C955.849 397.933 958.355 400.576 961.44 402.391C964.478 404.139 967.932 405.046 971.443 405.018C974.985 405.046 978.472 404.14 981.546 402.391C984.65 400.582 987.176 397.939 988.834 394.766C990.698 391.17 991.627 387.167 991.534 383.122C991.638 379.07 990.704 375.059 988.819 371.464L988.877 371.478Z" fill="white"/>
<path d="M1029 361.808V396.484C1029 399.324 1029.62 401.368 1030.84 402.547C1032.07 403.725 1034.19 404.308 1037.22 404.308H1044.45V412.572H1035.59C1030.12 412.572 1026.01 411.322 1023.27 408.823C1020.53 406.324 1019.16 402.211 1019.17 396.484V361.808H1011.51V353.757H1019.17V338.947H1029V353.757H1044.45V361.808H1029Z" fill="white"/>
<path d="M1055.59 342.269C1054.65 341.337 1054.02 340.15 1053.76 338.859C1053.5 337.569 1053.64 336.231 1054.14 335.016C1054.65 333.801 1055.51 332.762 1056.61 332.031C1057.71 331.3 1059.01 330.91 1060.33 330.909C1061.19 330.894 1062.04 331.058 1062.83 331.391C1063.62 331.723 1064.33 332.217 1064.92 332.84C1066.14 334.113 1066.82 335.804 1066.82 337.562C1066.82 339.32 1066.14 341.01 1064.92 342.283C1064.33 342.906 1063.62 343.4 1062.83 343.732C1062.04 344.065 1061.19 344.229 1060.33 344.214C1059.45 344.232 1058.57 344.068 1057.75 343.733C1056.94 343.399 1056.2 342.9 1055.59 342.269ZM1065.09 353.756V412.571H1055.26V353.756H1065.09Z" fill="white"/>
<path d="M1091.49 409.73C1087.01 407.248 1083.33 403.543 1080.9 399.052C1078.27 394.116 1076.95 388.592 1077.07 383.007C1076.97 377.464 1078.33 371.991 1081.01 367.132C1083.51 362.65 1087.24 358.966 1091.76 356.511C1096.46 354.075 1101.69 352.804 1106.99 352.804C1112.3 352.804 1117.52 354.075 1122.23 356.511C1126.74 358.959 1130.46 362.62 1132.97 367.075C1135.68 371.972 1137.04 377.492 1136.92 383.078C1137.03 388.691 1135.63 394.232 1132.86 399.123C1130.27 403.625 1126.48 407.323 1121.9 409.801C1117.2 412.322 1111.93 413.612 1106.59 413.55C1101.31 413.605 1096.1 412.288 1091.49 409.73ZM1116.5 402.432C1119.66 400.725 1122.26 398.152 1124 395.02C1126.01 391.338 1126.99 387.192 1126.86 383.007C1126.97 378.819 1125.99 374.675 1124 370.98C1122.32 367.876 1119.76 365.321 1116.65 363.625C1113.61 362.039 1110.23 361.21 1106.8 361.21C1103.37 361.21 1099.99 362.039 1096.95 363.625C1093.89 365.324 1091.4 367.883 1089.8 370.98C1087.9 374.701 1086.97 378.836 1087.1 383.007C1086.97 387.203 1087.88 391.367 1089.75 395.133C1091.32 398.226 1093.78 400.785 1096.82 402.489C1099.8 404.101 1103.15 404.932 1106.55 404.903C1110.02 404.935 1113.44 404.106 1116.5 402.489V402.432Z" fill="white"/>
<path d="M1195.2 359.179C1199.67 363.514 1201.91 369.757 1201.91 377.908V412.569H1192.19V379.299C1192.19 373.43 1190.71 368.938 1187.76 365.824C1186.19 364.243 1184.29 363.01 1182.21 362.208C1180.12 361.405 1177.89 361.05 1175.66 361.167C1173.37 361.057 1171.08 361.43 1168.95 362.263C1166.81 363.095 1164.88 364.367 1163.28 365.994C1160.22 369.204 1158.69 373.904 1158.69 380.052V412.569H1148.86V353.754H1158.69V362.132C1160.64 359.117 1163.39 356.699 1166.64 355.146C1170.09 353.475 1173.88 352.629 1177.71 352.675C1184.84 352.675 1190.69 354.848 1195.2 359.179Z" fill="white"/>
<path d="M1289.84 377.37C1292.12 379.163 1293.96 381.438 1295.24 384.03C1296.7 386.973 1297.38 390.235 1297.22 393.511C1297.06 396.788 1296.06 399.97 1294.33 402.759C1292.25 405.914 1289.3 408.409 1285.84 409.944C1281.72 411.785 1277.24 412.683 1272.72 412.571H1244.63V337.767H1271.64C1276.13 337.643 1280.59 338.501 1284.71 340.281C1288.02 341.721 1290.84 344.09 1292.81 347.096C1294.62 349.998 1295.56 353.353 1295.51 356.766C1295.66 360.74 1294.38 364.637 1291.9 367.757C1289.39 370.726 1286.07 372.91 1282.34 374.047C1285.09 374.482 1287.68 375.628 1289.84 377.37ZM1254.46 370.071H1270.95C1275.55 370.071 1279.12 368.992 1281.64 366.848C1282.84 365.69 1283.79 364.305 1284.44 362.774C1285.09 361.244 1285.43 359.599 1285.43 357.938C1285.43 356.276 1285.09 354.632 1284.44 353.101C1283.79 351.571 1282.84 350.186 1281.64 349.028C1279.12 346.883 1275.48 345.819 1270.73 345.819H1254.42L1254.46 370.071ZM1283.31 401.097C1284.68 399.918 1285.76 398.445 1286.47 396.789C1287.18 395.133 1287.5 393.339 1287.41 391.541C1287.5 389.686 1287.16 387.836 1286.42 386.133C1285.67 384.429 1284.55 382.918 1283.12 381.715C1279.83 379.182 1275.74 377.907 1271.58 378.122H1254.43V404.519H1271.82C1276.74 404.519 1280.57 403.379 1283.31 401.097Z" fill="white"/>
<path d="M1362.26 353.755V412.569H1352.4V403.879C1350.52 406.936 1347.8 409.399 1344.57 410.979C1341.13 412.686 1337.34 413.553 1333.5 413.506C1329.19 413.574 1324.92 412.599 1321.07 410.666C1317.38 408.754 1314.36 405.786 1312.38 402.147C1310.14 397.88 1309.05 393.112 1309.2 388.302V353.755H1318.91V386.925C1318.91 392.718 1320.39 397.172 1323.34 400.286C1324.92 401.87 1326.81 403.105 1328.89 403.911C1330.98 404.716 1333.21 405.073 1335.45 404.958C1337.74 405.074 1340.04 404.703 1342.18 403.871C1344.32 403.039 1346.26 401.763 1347.87 400.13C1350.9 396.912 1352.41 392.221 1352.4 386.058V353.755H1362.26Z" fill="white"/>
<path d="M1386.58 411.236C1383.19 409.882 1380.23 407.657 1378 404.789C1375.91 402.04 1374.71 398.729 1374.54 395.29H1384.7C1384.83 396.717 1385.27 398.099 1385.99 399.341C1386.71 400.584 1387.69 401.658 1388.86 402.489C1391.72 404.479 1395.15 405.477 1398.64 405.329C1401.78 405.503 1404.9 404.639 1407.5 402.872C1408.5 402.171 1409.33 401.238 1409.89 400.152C1410.46 399.067 1410.75 397.861 1410.74 396.639C1410.77 395.462 1410.46 394.302 1409.85 393.295C1409.24 392.288 1408.34 391.477 1407.28 390.959C1403.87 389.317 1400.28 388.073 1396.58 387.253C1392.92 386.342 1389.33 385.175 1385.83 383.76C1383.07 382.593 1380.62 380.792 1378.69 378.506C1376.61 375.903 1375.55 372.638 1375.71 369.319C1375.71 366.348 1376.65 363.453 1378.42 361.054C1380.39 358.42 1383.04 356.364 1386.09 355.105C1389.67 353.586 1393.54 352.835 1397.44 352.904C1403.98 352.904 1409.27 354.551 1413.31 357.845C1415.31 359.497 1416.93 361.561 1418.05 363.895C1419.17 366.229 1419.77 368.777 1419.8 371.363H1409.97C1409.91 369.938 1409.55 368.542 1408.9 367.267C1408.26 365.991 1407.35 364.866 1406.24 363.965C1403.63 361.976 1400.39 360.97 1397.11 361.126C1394.13 360.973 1391.18 361.763 1388.68 363.383C1387.7 364.027 1386.9 364.904 1386.36 365.933C1385.81 366.963 1385.53 368.112 1385.55 369.276C1385.52 370.159 1385.67 371.04 1385.99 371.863C1386.32 372.686 1386.81 373.434 1387.43 374.061C1388.8 375.376 1390.42 376.401 1392.19 377.072C1394.11 377.81 1396.75 378.662 1400.14 379.585C1403.66 380.494 1407.12 381.622 1410.5 382.964C1413.15 384.069 1415.5 385.782 1417.36 387.963C1419.35 390.417 1420.41 393.497 1420.33 396.653C1420.36 399.759 1419.42 402.798 1417.63 405.343C1415.7 408.028 1413.07 410.131 1410.01 411.42C1406.45 412.944 1402.6 413.694 1398.72 413.621C1394.55 413.653 1390.42 412.842 1386.58 411.236Z" fill="white"/>
<path d="M1433.45 342.269C1432.52 341.337 1431.88 340.15 1431.63 338.859C1431.37 337.569 1431.5 336.231 1432.01 335.016C1432.52 333.801 1433.38 332.762 1434.48 332.031C1435.58 331.3 1436.87 330.91 1438.2 330.909C1439.06 330.894 1439.91 331.058 1440.7 331.39C1441.5 331.723 1442.21 332.217 1442.8 332.84C1444.01 334.118 1444.68 335.807 1444.68 337.562C1444.68 339.317 1444.01 341.005 1442.8 342.283C1442.21 342.906 1441.5 343.4 1440.7 343.733C1439.91 344.065 1439.06 344.229 1438.2 344.214C1437.32 344.232 1436.44 344.068 1435.62 343.733C1434.81 343.399 1434.07 342.9 1433.45 342.269ZM1442.96 353.756V412.571H1433.13V353.756H1442.96Z" fill="white"/>
<path d="M1504.93 359.179C1509.39 363.514 1511.62 369.757 1511.63 377.908V412.569H1501.9V379.299C1501.9 373.43 1500.42 368.938 1497.47 365.824C1495.9 364.242 1494.01 363.008 1491.93 362.205C1489.85 361.402 1487.61 361.048 1485.38 361.166C1483.09 361.056 1480.81 361.429 1478.67 362.261C1476.54 363.094 1474.61 364.366 1473.01 365.994C1469.95 369.203 1468.42 373.903 1468.42 380.052V412.569H1458.59V353.754H1468.42V362.132C1470.37 359.117 1473.12 356.699 1476.36 355.146C1479.81 353.476 1483.59 352.63 1487.43 352.675C1494.63 352.675 1500.46 354.843 1504.93 359.179Z" fill="white"/>
<path d="M1580.35 386.812H1533.04C1533.41 392.606 1535.39 397.135 1539.04 400.387C1542.65 403.643 1547.39 405.392 1552.27 405.272C1556.04 405.406 1559.76 404.379 1562.92 402.332C1565.72 400.414 1567.82 397.644 1568.9 394.437H1579.49C1577.99 399.97 1574.64 404.831 1569.99 408.225C1564.84 411.899 1558.61 413.771 1552.27 413.55C1547 413.635 1541.81 412.337 1537.21 409.787C1532.78 407.289 1529.16 403.584 1526.78 399.109C1524.18 394.162 1522.87 388.643 1522.99 383.064C1522.9 377.528 1524.19 372.056 1526.73 367.132C1529.06 362.686 1532.65 359.014 1537.05 356.567C1541.74 354.034 1547.01 352.756 1552.34 352.861C1557.55 352.761 1562.68 354.019 1567.25 356.51C1571.48 358.836 1574.95 362.32 1577.25 366.55C1579.64 370.987 1580.85 375.958 1580.76 380.99C1580.73 382.937 1580.59 384.881 1580.35 386.812ZM1568.05 369.262C1566.43 366.621 1564.08 364.497 1561.29 363.142C1558.34 361.727 1555.11 361.013 1551.84 361.054C1547.16 360.946 1542.61 362.64 1539.15 365.783C1535.52 369.207 1533.36 373.902 1533.15 378.875H1570.53C1570.62 375.502 1569.76 372.172 1568.05 369.262Z" fill="white"/>
<path d="M1601.31 411.236C1597.93 409.882 1594.97 407.657 1592.74 404.789C1590.64 402.043 1589.44 398.731 1589.28 395.29H1599.43C1599.56 396.717 1599.99 398.099 1600.71 399.341C1601.43 400.584 1602.41 401.658 1603.58 402.489C1606.44 404.481 1609.88 405.48 1613.37 405.329C1616.51 405.508 1619.63 404.644 1622.22 402.872C1623.23 402.173 1624.05 401.24 1624.62 400.154C1625.18 399.068 1625.47 397.861 1625.46 396.639C1625.5 395.462 1625.19 394.3 1624.57 393.292C1623.96 392.285 1623.07 391.475 1622 390.959C1618.6 389.316 1615.01 388.072 1611.31 387.253C1607.65 386.344 1604.06 385.177 1600.57 383.76C1597.8 382.597 1595.35 380.796 1593.42 378.506C1591.34 375.903 1590.29 372.638 1590.45 369.319C1590.44 366.348 1591.39 363.453 1593.15 361.054C1595.12 358.42 1597.77 356.364 1600.83 355.105C1604.4 353.585 1608.27 352.835 1612.16 352.904C1618.72 352.904 1624.02 354.551 1628.05 357.845C1630.05 359.495 1631.67 361.56 1632.79 363.894C1633.9 366.229 1634.5 368.778 1634.52 371.363H1624.69C1624.63 369.938 1624.27 368.542 1623.62 367.267C1622.98 365.991 1622.07 364.866 1620.96 363.965C1618.36 361.974 1615.13 360.967 1611.84 361.126C1608.86 360.971 1605.91 361.762 1603.41 363.383C1602.44 364.027 1601.64 364.904 1601.09 365.933C1600.54 366.963 1600.27 368.112 1600.28 369.276C1600.25 370.159 1600.4 371.04 1600.73 371.863C1601.05 372.686 1601.54 373.434 1602.17 374.061C1603.53 375.379 1605.15 376.404 1606.93 377.072C1609.53 378.041 1612.17 378.88 1614.86 379.585C1618.39 380.492 1621.85 381.621 1625.23 382.964C1627.88 384.076 1630.23 385.788 1632.09 387.963C1634.09 390.417 1635.14 393.497 1635.06 396.653C1635.1 399.759 1634.16 402.798 1632.36 405.343C1630.43 408.025 1627.8 410.127 1624.75 411.42C1621.18 412.943 1617.34 413.693 1613.46 413.621C1609.29 413.653 1605.16 412.842 1601.31 411.236Z" fill="white"/>
<path d="M1656.6 411.236C1653.22 409.882 1650.26 407.657 1648.03 404.789C1645.94 402.04 1644.74 398.729 1644.57 395.29H1654.73C1654.86 396.717 1655.3 398.099 1656.02 399.341C1656.74 400.584 1657.71 401.658 1658.89 402.489C1661.74 404.479 1665.18 405.477 1668.66 405.329C1671.81 405.503 1674.92 404.639 1677.52 402.872C1678.53 402.171 1679.35 401.238 1679.92 400.152C1680.48 399.067 1680.77 397.861 1680.77 396.639C1680.8 395.462 1680.49 394.302 1679.88 393.295C1679.26 392.288 1678.37 391.477 1677.31 390.959C1673.9 389.317 1670.31 388.073 1666.61 387.253C1662.94 386.342 1659.35 385.175 1655.86 383.76C1653.09 382.593 1650.65 380.792 1648.71 378.506C1646.64 375.903 1645.58 372.638 1645.74 369.319C1645.73 366.348 1646.68 363.453 1648.44 361.054C1650.41 358.42 1653.07 356.364 1656.12 355.105C1659.7 353.586 1663.57 352.835 1667.46 352.904C1674.01 352.904 1679.3 354.551 1683.34 357.845C1685.34 359.495 1686.96 361.56 1688.08 363.894C1689.2 366.229 1689.79 368.778 1689.81 371.363H1680C1679.93 369.939 1679.57 368.543 1678.93 367.269C1678.28 365.994 1677.38 364.868 1676.27 363.965C1673.66 361.976 1670.42 360.97 1667.13 361.126C1664.15 360.973 1661.2 361.763 1658.7 363.383C1657.73 364.027 1656.93 364.904 1656.38 365.933C1655.84 366.963 1655.56 368.112 1655.57 369.276C1655.54 370.159 1655.69 371.04 1656.02 371.863C1656.34 372.686 1656.83 373.434 1657.46 374.061C1658.82 375.376 1660.44 376.401 1662.22 377.072C1664.13 377.81 1666.78 378.662 1670.16 379.585C1673.69 380.494 1677.15 381.622 1680.52 382.964C1683.18 384.069 1685.53 385.782 1687.38 387.963C1689.38 390.417 1690.43 393.497 1690.36 396.653C1690.39 399.759 1689.45 402.798 1687.65 405.343C1685.73 408.028 1683.09 410.131 1680.04 411.42C1676.48 412.944 1672.63 413.694 1668.75 413.621C1664.58 413.653 1660.45 412.842 1656.6 411.236Z" fill="white"/>
</svg>
