<svg id="Layer_1" data-name="Layer 1" xmlns="http://www.w3.org/2000/svg" viewBox="0 0 326.7 219.62"><defs><style>.cls-1{fill:#5f6a93;}</style></defs><g id="logo"><path class="cls-1" d="M139.85,326.87h0l.45-.88Z" transform="translate(-79.96 -143.81)"/><path class="cls-1" d="M163.7,345.89Z" transform="translate(-79.96 -143.81)"/><path class="cls-1" d="M138.13,323.09c-.09.17-.17.35-.25.52h0Z" transform="translate(-79.96 -143.81)"/><path class="cls-1" d="M394.45,155.77a29.75,29.75,0,0,0-23.81-12h-261A29.75,29.75,0,0,0,80,173.52V290.89a29.72,29.72,0,0,0,12.2,24,29.79,29.79,0,0,0,23.83,12h20.15a85,85,0,0,1-25.35,27.68,32.51,32.51,0,0,1-8.79,4.36l4.55,1.45.19.08.23.09.18.05a64,64,0,0,0,19.76,2.85c17.77,0,44.78-6.23,70.86-36.56H377a29.76,29.76,0,0,0,29.71-29.74V179.77A29.69,29.69,0,0,0,394.45,155.77ZM116,323.61a26.22,26.22,0,0,1-13.87-4c.62.17,1.22.31,1.84.43s1.25.23,1.89.31,1,.11,1.5.14a4.55,4.55,0,0,0,.52,0c.59.05,1.21.06,1.81.06h29.63c-.29.65-.62,1.31-.93,2-.08.17-.16.34-.25.51s-.17.35-.25.52ZM111.52,358a88.16,88.16,0,0,0,28.33-31.13l.47-.88c1.06-2,2.07-4.18,3-6.36l1-2.27H109.68a26.15,26.15,0,0,1-15.39-4.95l-.34-.26a26.51,26.51,0,0,1-10.73-21.26V173.52a26.49,26.49,0,0,1,26.46-26.45h261A26.55,26.55,0,0,1,392,157.88a26.22,26.22,0,0,1,5.12,15.64V290.91a26.45,26.45,0,0,1-26.45,26.45H190l-.49.57A157.49,157.49,0,0,1,177,331c-.9.85-1.81,1.68-2.71,2.46a122.35,122.35,0,0,1-10.92,8.66c-.75.55-1.5,1-2.25,1.54q-2.56,1.71-5,3.17c-1.23.73-2.43,1.4-3.62,2a.5.5,0,0,1-.15.08c-.78.42-1.55.81-2.33,1.19s-1.61.78-2.41,1.16-1.53.68-2.28,1l-1.18.49c-.75.31-1.48.6-2.21.86l0,0c-.71.26-1.42.52-2.12.75-1.1.37-2.2.73-3.27,1-1.37.41-2.72.77-4,1.06-1,.23-1.94.44-2.89.62-.58.12-1.16.21-1.73.31l-1.46.23c-1,.15-1.89.26-2.79.34a55.47,55.47,0,0,1-12.1,0ZM403.4,297.13A26.49,26.49,0,0,1,377,323.61H196.27l-.49.57C172.47,351.58,148.51,359,131.47,360l2.3-.52c1.53-.38,3.13-.82,4.76-1.32.7-.22,1.42-.44,2.15-.71s1.21-.4,1.83-.63c.85-.31,1.71-.64,2.57-1a0,0,0,0,1,0,0c.86-.34,1.74-.71,2.64-1.1a98.11,98.11,0,0,0,9.19-4.65l.35-.2,1.56-.92c1.6-1,3.23-2,4.86-3.1s3.29-2.28,5-3.56a5.2,5.2,0,0,1,.47-.35q3.8-2.89,7.67-6.34l2.07-1.88c.68-.64,1.38-1.29,2.07-2s1.33-1.29,2-2c2.14-2.15,4.29-4.42,6.44-6.84.7-.79,1.39-1.57,2.07-2.37H370.64a29.75,29.75,0,0,0,29.71-29.73V173.52c0-.34,0-.66,0-1,0-.19,0-.4,0-.6a6.74,6.74,0,0,0,0-.77c0-.39-.07-.78-.12-1.17,0-.23-.05-.46-.08-.67-.08-.6-.18-1.17-.31-1.76s-.28-1.3-.46-1.94a26.62,26.62,0,0,1,4.11,14.17Z" transform="translate(-79.96 -143.81)"/><path class="cls-1" d="M113.33,276.93a4.41,4.41,0,0,1-3.64-2.31,7.4,7.4,0,0,1-1.56-3.82,11.9,11.9,0,0,1,.35-2.6q.34-1.56.34-32.65a5.38,5.38,0,0,1-2-2.66,9,9,0,0,1-.81-3.24c0-1.31.69-2,2.08-2l.69.11q0-23.58-.34-31.79c0-1.62.76-2.42,2.31-2.42a16,16,0,0,1,5.78,1.5l28.09-2.55c2.31-.3,3.73-.46,4.27-.46a3.59,3.59,0,0,1,3.41,2.37,9.8,9.8,0,0,1,1.1,4c0,1.77-.77,2.66-2.31,2.66h-7.4q-1.72,0-26,2.08v24.51q19-1.51,21.39-1.85c2.23-.31,3.66-.47,4.27-.47a3.52,3.52,0,0,1,3.3,2.37,10.12,10.12,0,0,1,1.1,4.11c0,1.77-.74,2.66-2.2,2.66h-7.4q-1.62,0-20.46,1.5v31.56q32.6-.7,34.68-.93,2,0,3.12,2.49a10.44,10.44,0,0,1,1.16,4.22c0,1.77-.73,2.65-2.2,2.65q-3.69-.35-8.9-.34-28.2.45-29.3.86A8.78,8.78,0,0,1,113.33,276.93Z" transform="translate(-79.96 -143.81)"/><path class="cls-1" d="M169.05,229.3q-3.36,0-3.36-5.2,0-3.47,2.78-3.47,3.47.24,20.57.24,15,0,19.42-.35c2.32,0,3.47,1.77,3.47,5.32,0,2.23-.85,3.35-2.54,3.35-1.54,0-3,0-4.51-.12s-6.78-.11-15.95-.11Q171,229,169.05,229.3Zm0,21.74q-3.36,0-3.36-5.21,0-3.47,2.78-3.46,3.47.23,20.57.23,15,0,19.42-.35c2.32,0,3.47,1.77,3.47,5.32,0,2.23-.85,3.35-2.54,3.35-1.54,0-3,0-4.51-.12s-6.78-.11-15.95-.11Q171,250.69,169.05,251Z" transform="translate(-79.96 -143.81)"/><path class="cls-1" d="M225,276.58c-2.86,0-4.28-.85-4.28-2.54q.92-8.67,1.39-17.34,3.12-53.17,3.12-57.1a19.75,19.75,0,0,1-.12-2.43,4.8,4.8,0,0,1,2.89-2.89,11.7,11.7,0,0,1,5.09-1.16c1.08.23,1.73.54,2,.93q.58,1.38,3,12.48l7.51,37.57q4.17-18.15,11.56-46.82a23.51,23.51,0,0,0,.75-3.29,2,2,0,0,1,2.26-1.79,9.56,9.56,0,0,1,3.06.69,18.63,18.63,0,0,1,3.64,1.79c1.16.74,1.74,1.49,1.74,2.26a9.62,9.62,0,0,1-.29,2.31,12.34,12.34,0,0,0-.29,3q1,13.42,3.46,62.08c.24,2.85.62,5.78,1.16,8.78a2.68,2.68,0,0,1-1.79,2.55,9.05,9.05,0,0,1-3.76.81q-4.4,0-4.39-2.66,0-15.26-1.73-57.68-4.76,18.5-7.52,30.05-1,5-1.79,8.56a45.69,45.69,0,0,0-.87,5.14,3.3,3.3,0,0,1-2,2.6,8.25,8.25,0,0,1-4,1q-3.93,0-4.16-3.35-1-6.24-8.44-40.92-.47,10.51-1,29.24-.69,16.89-.69,25.2Q230.08,276.59,225,276.58Z" transform="translate(-79.96 -143.81)"/><path class="cls-1" d="M304,277.62A22.92,22.92,0,0,1,291,273.87q-5.67-3.76-9-11.85t-3.29-20.81q0-20.46,8.32-34.79t20.69-14.34q12.6,0,20.35,11.1a2.21,2.21,0,0,1,.46,1.39,7.9,7.9,0,0,1-1.45,4c-1,1.54-2.06,2.31-3.29,2.31a2.54,2.54,0,0,1-2.31-1.38Q317,201,307.41,201q-10.4,0-16.76,19.19A71.63,71.63,0,0,0,287.88,241q0,27.86,16.53,27.86,11.55,0,20.11-14.1a3.94,3.94,0,0,1,3.24-2.09c1.62,0,2.43,1,2.43,2.89a10.85,10.85,0,0,1-.93,3.13q-2,5.19-8.2,11.67A23.67,23.67,0,0,1,304,277.62Z" transform="translate(-79.96 -143.81)"/><path class="cls-1" d="M339.38,225.56a2.82,2.82,0,0,1-2.46-1.36,4.68,4.68,0,0,1-.92-2.6,2.72,2.72,0,0,1,.33-1.29,6,6,0,0,1,.74-1.1,6.31,6.31,0,0,0,.69-1q4.33-8.31,15.58-18.88,8.6-7.72,8.59-14.7a7.22,7.22,0,0,0-1.8-5.1c-1.2-1.3-3-1.95-5.54-1.95q-7.43,0-9.77,6.83A2.94,2.94,0,0,1,342,186.7a2.37,2.37,0,0,1-1.76-.77,5.48,5.48,0,0,1-1.1-1.62,3.52,3.52,0,0,1-.37-1.36,6.48,6.48,0,0,1,.95-2.64q1.92-3.9,7.87-6.91a16.78,16.78,0,0,1,7.12-1.39q6.31,0,9.92,3.52a12.21,12.21,0,0,1,3.6,9.11q0,8.82-10.87,18.59-9.71,8.82-13.89,16.38,2.64-.29,10.58-.29l7.93.07,4.34-.07a2.41,2.41,0,0,1,2.13,1.5,6,6,0,0,1,.81,2.76c0,1.17-.57,1.76-1.69,1.76a17.38,17.38,0,0,1-2.28-.22,64.38,64.38,0,0,0-8-.37q-10.58,0-13.51.23a34.31,34.31,0,0,0-4,.58Z" transform="translate(-79.96 -143.81)"/></g></svg>